<svg xmlns="http://www.w3.org/2000/svg" viewBox="0 0 26 22">
	<path d="M9.7 22c-1.1 0-2.3-.1-3.4-.3-2.1-.3-4.1-1.4-4.7-1.8L0 19.1l1.7-.6c1.8-.6 2.9-1 4.3-1.6-1.4-.7-2.5-1.9-3-3.5l-.4-1.2H3c-.3-.3-.5-.6-.7-.9-.7-1-1-2.3-.9-3.4l.1-1.1.5.3c-.3-.5-.5-1.1-.6-1.6-.3-1.4 0-2.9.6-4.1l.5-1 .7.9c2.3 2.8 5.1 4.5 8.5 5-.1-1 0-2 .3-2.8.4-1 1.1-1.8 2.1-2.5 1.1-.7 2.3-1 3.6-.9 1.3.1 2.6.6 3.5 1.5.5-.1.8-.3 1.3-.4.3-.1.6-.2 1-.4L25 .3l-1 2.9h.2l1.8-.3-.9 1.3c-.1.1-.1.2-.1.2-.1.1-.2.3-1.5 2-.3.4-.5 1-.5 1.6.1 2.3-.2 4.4-.8 6.2-.6 1.7-1.6 3.2-2.9 4.4-1.6 1.5-3.6 2.5-6 3-1 .3-2.3.4-3.6.4z"
		fill="rgba(255,255,255,0.55)"
	/>
</svg>