<svg xmlns="http://www.w3.org/2000/svg" viewBox="0 0 52 18"><path d="M47.3988,0H4.6012A4.6064,4.6064,0,0,0,0,4.6012v8.7976A4.6064,4.6064,0,0,0,4.6012,18H47.3988A4.6064,4.6064,0,0,0,52,13.3988V4.6012A4.6064,4.6064,0,0,0,47.3988,0Zm3.2828,13.3989a3.2863,3.2863,0,0,1-3.2828,3.2828H4.6012a3.2863,3.2863,0,0,1-3.2828-3.2828V4.6012A3.2863,3.2863,0,0,1,4.6012,1.3184H47.3988a3.2863,3.2863,0,0,1,3.2828,3.2828Z" fill="#fff" fill-rule="evenodd"/><path d="M40.24,10.2909c-.4533-.0007-.9054-.061-.9168-.6371-.0113-.57.4211-.6735.8845-.6742l5.2577-.0026c.4691-.0012.9156.1086.9231.6453.0084.5952-.4738.6741-.9618.6707C44.55,10.287,41.0921,10.2922,40.24,10.2909Z" fill="#fff"/><path d="M4.5745,13.57c-.4534-.0007-.9055-.0611-.9169-.6371-.0112-.57.4212-.6736.8845-.6742l42.8773-.0026c.4691-.0012.9156.1086.9231.6453.0083.5952-.4738.6741-.9618.6707C46.5044,13.5661,5.4271,13.5713,4.5745,13.57Z" fill="#fff"/></svg>