<svg xmlns="http://www.w3.org/2000/svg" viewBox="0 0 38.8105 50.429"><path d="M36.872,0H1.9382A1.9468,1.9468,0,0,0,0,1.9439V48.4851A1.9467,1.9467,0,0,0,1.9382,50.429H36.872a1.9469,1.9469,0,0,0,1.9385-1.9439V1.9439A1.9469,1.9469,0,0,0,36.872,0Zm.2624,48.8347H1.6758V1.5942H37.1344Z" fill="#fff" fill-rule="evenodd"/><path d="M32.3407,11.0354c.3073.5978,1.2067.0706.8994-.5257a1.7913,1.7913,0,0,0-2.3437-1.0121c-1.0257.351-2.1524,1.5133-2.9094.1872a.5212.5212,0,0,0-.8995.5258,1.9459,1.9459,0,0,0,2.4634,1.0423C30.522,10.9366,31.6721,9.7362,32.3407,11.0354Z" fill="#fff"/><path d="M32.3407,14.5524c.3073.5978,1.2067.07.8994-.5258a1.7912,1.7912,0,0,0-2.3437-1.012c-1.0257.351-2.1524,1.5132-2.9094.1872a.5212.5212,0,0,0-.8995.5257A1.9458,1.9458,0,0,0,29.5509,14.77C30.522,14.4535,31.6721,13.2532,32.3407,14.5524Z" fill="#fff"/><path d="M32.3407,18.0693c.3073.5978,1.2067.0706.8994-.5257a1.7913,1.7913,0,0,0-2.3437-1.0121c-1.0257.351-2.1524,1.5133-2.9094.1872a.5212.5212,0,0,0-.8995.5258,1.9459,1.9459,0,0,0,2.4634,1.0423C30.522,17.9705,31.6721,16.77,32.3407,18.0693Z" fill="#fff"/><path d="M32.3407,33.6569c.3073.5978,1.2067.0706.8994-.5257a1.7912,1.7912,0,0,0-2.3437-1.0121c-1.0257.351-2.1524,1.5132-2.9094.1872a.5212.5212,0,0,0-.8995.5257,1.9457,1.9457,0,0,0,2.4634,1.0423C30.522,33.5581,31.6721,32.3577,32.3407,33.6569Z" fill="#fff"/><path d="M32.3407,37.1738c.3073.5979,1.2067.0706.8994-.5257a1.7912,1.7912,0,0,0-2.3437-1.012c-1.0257.351-2.1524,1.5132-2.9094.1872a.5212.5212,0,0,0-.8995.5257,1.9459,1.9459,0,0,0,2.4634,1.0423C30.522,37.075,31.6721,35.8746,32.3407,37.1738Z" fill="#fff"/><path d="M32.3407,40.6908c.3073.5978,1.2067.0706.8994-.5257a1.7912,1.7912,0,0,0-2.3437-1.0121c-1.0257.351-2.1524,1.5132-2.9094.1872a.5212.5212,0,0,0-.8995.5257,1.9457,1.9457,0,0,0,2.4634,1.0423C30.522,40.592,31.6721,39.3916,32.3407,40.6908Z" fill="#fff"/><path d="M21.1284,6.77A9.9019,9.9019,0,0,0,7.1577,6.86,9.8931,9.8931,0,0,0,21.1792,20.82a9.9648,9.9648,0,0,0-.0508-14.05ZM20.46,20.156a8.91,8.91,0,1,1,2.64-6.3194A8.9357,8.9357,0,0,1,20.46,20.156Z" fill="#fff"/><path d="M21.5155,11.2668q-.0259-.1111-.0572-.2207a5.372,5.372,0,0,0-1.8218-2.6626A2.474,2.474,0,0,0,18.6,7.8379a1.1409,1.1409,0,0,0-1.0828.3167A2.416,2.416,0,0,0,17.2,9.5592a3.4012,3.4012,0,0,1-1.4922,2.4914,2.3078,2.3078,0,0,0-1.0536-.4933,3.8706,3.8706,0,0,0-1.0479-2.7625A3.5888,3.5888,0,0,0,10.802,7.7063a4.0137,4.0137,0,0,0-2.45,1.16A5.6858,5.6858,0,0,0,7.1457,10.64a6.013,6.013,0,0,0-.3075.98,2.9792,2.9792,0,0,0-.1111,1.193,1.2766,1.2766,0,0,0,1.0094,1.122,2.6266,2.6266,0,0,0,1.32-.452,3.3329,3.3329,0,0,1,2.86.0373,2.17,2.17,0,0,0-.0319.3594,2.2072,2.2072,0,0,0,.1.5874,3.5622,3.5622,0,0,0-1.5619,5.5164A4.6673,4.6673,0,0,0,14.3,21.5837a4.7272,4.7272,0,0,0,2.0112-.4916,1.44,1.44,0,0,0,.8923-1.1519c-.0016-.6842-.7348-1.0837-1.255-1.5282a3.2107,3.2107,0,0,1-1.0876-2.0146.483.483,0,0,1,.0249-.2818c.0044-.0087.0132-.0141.0185-.0222a2.2476,2.2476,0,0,0,1.0213-.6039c.0174-.0181.0292-.04.0459-.0586a.7336.7336,0,0,1,.3607.0918A5.1385,5.1385,0,0,0,17.8478,16,3.396,3.396,0,0,0,20.89,14.6077,4.1365,4.1365,0,0,0,21.5155,11.2668Zm-6.3217,3.5191a1.2939,1.2939,0,0,1-.9189.3989H14.25a1.369,1.369,0,0,1-1.3574-1.3154,1.3054,1.3054,0,0,1,.3848-.9317,1.3426,1.3426,0,0,1,.9648-.4131,1.3418,1.3418,0,0,1,.9521,2.2613ZM8.18,12.9045c-.2031.12-.3672.1612-.4453.1094-.0889-.0552-.128-.249-.1055-.5181a4.9041,4.9041,0,0,1,1.3769-2.94,2.5913,2.5913,0,0,1,2.7071-.8008,2.5071,2.5071,0,0,1,1.9336,2.1465c.0781.5171-.0052.7042-.0768.728-.02.0067-.0354.0155-.0549.0225a2.3737,2.3737,0,0,0-.9551.5932,2.5086,2.5086,0,0,0-.289.3569A4.7692,4.7692,0,0,0,8.18,12.9045Zm7.9013,6.77c.1456.127.2178.2344.209.3106-.0078.0747-.1006.1645-.2607.2534a4.417,4.417,0,0,1-4.6445-.58,2.5832,2.5832,0,0,1-.7081-2.3491,2.4574,2.4574,0,0,1,1.4433-1.87c.0566-.0234.2819-.1154.3465-.0829l.0249.012c.0448.0506.0823.1052.1318.153a2.3506,2.3506,0,0,0,1.177.62,4.9886,4.9886,0,0,1,.31.8916,4.07,4.07,0,0,0,.6588,1.3629A13.9283,13.9283,0,0,0,16.0815,19.6745ZM20.0347,14.18a2.5591,2.5591,0,0,1-3.333.4722.5965.5965,0,0,1-.2136-.2125,2.4153,2.4153,0,0,0,.0773-.6252,2.3734,2.3734,0,0,0-.2405-.9911A4.2385,4.2385,0,0,0,18.13,9.1907c-.002-.2549.0537-.4292.1523-.4781a.1753.1753,0,0,1,.0791-.0171.82.82,0,0,1,.4356.2017,4.6266,4.6266,0,0,1,1.8759,3.064A2.4967,2.4967,0,0,1,20.0347,14.18Z" fill="#fff"/><path d="M11.5557,26.9476a9.9018,9.9018,0,0,0-6.9309,12.13,9.8932,9.8932,0,0,0,19.1106-5.1265,9.965,9.965,0,0,0-12.18-7.004ZM22.8,34.24a8.91,8.91,0,1,1-4.1426-5.4535A8.9359,8.9359,0,0,1,22.8,34.24Z" fill="#fff"/><path d="M15.64,28.8684q-.1092-.0335-.22-.0613a5.3721,5.3721,0,0,0-3.2173.24,2.4736,2.4736,0,0,0-.9918.6228,1.1407,1.1407,0,0,0-.2692,1.0955c.162.4616.6567.6963,1.056.979a3.4011,3.4011,0,0,1,1.4068,2.5406,2.3089,2.3089,0,0,0-.9553.6639A3.8712,3.8712,0,0,0,9.5339,34.47a3.5886,3.5886,0,0,0-2.3485,1.88A4.0143,4.0143,0,0,0,6.96,39.0512a5.6871,5.6871,0,0,0,.9293,1.9339,6.0191,6.0191,0,0,0,.6938.7578,2.9781,2.9781,0,0,0,.9763.6945,1.2765,1.2765,0,0,0,1.477-.31,2.626,2.626,0,0,0,.2713-1.3689,3.3332,3.3332,0,0,1,1.4669-2.4553,2.1533,2.1533,0,0,0,.2949.2079,2.2025,2.2025,0,0,0,.5584.2079,3.5621,3.5621,0,0,0,3.9886,4.1184,4.667,4.667,0,0,0,3.3286-2.5516,4.7249,4.7249,0,0,0,.5836-1.9864,1.44,1.44,0,0,0-.5489-1.35c-.5926-.3419-1.306.092-1.9515.319a3.21,3.21,0,0,1-2.2883-.07.4838.4838,0,0,1-.2314-.163.25.25,0,0,1-.01-.0271,2.2476,2.2476,0,0,0-.01-1.1865c-.0069-.024-.02-.0453-.0277-.069a.7324.7324,0,0,1,.2605-.266,5.1406,5.1406,0,0,0,1.1731-1.0714,3.3961,3.3961,0,0,0,.3216-3.3305A4.1365,4.1365,0,0,0,15.64,28.8684Zm-.1269,7.234a1.2939,1.2939,0,0,1-.1159.9951l-.0128.0219a1.3687,1.3687,0,0,1-1.8188.5144,1.3052,1.3052,0,0,1-.613-.8,1.3428,1.3428,0,0,1,.1267-1.0419,1.3419,1.3419,0,0,1,2.4338.3107ZM10.367,41.226c.002.236-.0448.3985-.1288.44-.0923.0492-.28-.0143-.501-.1687a4.9043,4.9043,0,0,1-1.853-2.6662,2.5913,2.5913,0,0,1,.6652-2.7435,2.5072,2.5072,0,0,1,2.8269-.5959c.4865.1918.6065.3577.5912.4316-.0043.0208-.0044.0384-.0081.0588a2.3751,2.3751,0,0,0,.0341,1.1238,2.5025,2.5025,0,0,0,.1638.429A4.7693,4.7693,0,0,0,10.367,41.226Zm9.82-3.4392c.1828-.0622.312-.0708.3735-.025.0607.0442.0919.17.0884.3527a4.4168,4.4168,0,0,1-2.8312,3.7271,2.5834,2.5834,0,0,1-2.3874-.5659,2.4572,2.4572,0,0,1-.8935-2.1865c.0082-.0607.0416-.3017.1021-.3413l.0229-.0156c.0662-.0134.1322-.0183.1984-.0372a2.3506,2.3506,0,0,0,1.127-.7071,4.9856,4.9856,0,0,1,.9268.1792,4.0709,4.0709,0,0,0,1.5095.1138A13.9442,13.9442,0,0,0,20.1872,37.7868Zm-2.77-6.1761a2.5591,2.5591,0,0,1-1.2635,3.12.5955.5955,0,0,1-.291.0781,2.4094,2.4094,0,0,0-.502-.38,2.373,2.373,0,0,0-.978-.2891,4.2386,4.2386,0,0,0-2.2369-3.3842c-.2214-.1262-.3443-.2618-.3371-.3716a.1752.1752,0,0,1,.0249-.077.82.82,0,0,1,.393-.2756,4.6267,4.6267,0,0,1,3.5916-.0859A2.4967,2.4967,0,0,1,17.417,31.6107Z" fill="#fff"/></svg>