<svg xmlns="http://www.w3.org/2000/svg" viewBox="0 0 38.8105 50.429"><path d="M36.872,0H1.9382A1.9468,1.9468,0,0,0,0,1.9439V48.4851A1.9467,1.9467,0,0,0,1.9382,50.429H36.872a1.9469,1.9469,0,0,0,1.9385-1.9439V1.9439A1.9469,1.9469,0,0,0,36.872,0Zm.2624,48.8347H1.6758V1.5942H37.1344Z" fill="#fff" fill-rule="evenodd"/><path d="M8.5372,5.6712a9.9019,9.9019,0,0,0-2.525,13.7409A9.8932,9.8932,0,0,0,22.3487,8.2488,9.9651,9.9651,0,0,0,8.5372,5.6712Zm13.0247,3.16a8.91,8.91,0,1,1-5.7142-3.7749A8.9358,8.9358,0,0,1,21.5619,8.8307Z" fill="#fff"/><path d="M13.0269,6.1318q-.114.0048-.2275.0149A5.3726,5.3726,0,0,0,9.843,7.4385a2.4729,2.4729,0,0,0-.73.916,1.141,1.141,0,0,0,.1085,1.1229,2.4166,2.4166,0,0,0,1.32.5742,3.4012,3.4012,0,0,1,2.1685,1.9317,2.309,2.309,0,0,0-.6817.9428,3.87,3.87,0,0,0-2.91.5128A3.5887,3.5887,0,0,0,7.5256,15.99a4.0139,4.0139,0,0,0,.6814,2.6233A5.6891,5.6891,0,0,0,9.724,20.131a6.0224,6.0224,0,0,0,.9056.4854,2.9772,2.9772,0,0,0,1.1512.3322,1.2765,1.2765,0,0,0,1.2909-.7817,2.6249,2.6249,0,0,0-.1971-1.3816,3.3334,3.3334,0,0,1,.5715-2.8024,2.1694,2.1694,0,0,0,.3471.0986,2.2058,2.2058,0,0,0,.5958.0114,3.562,3.562,0,0,0,5.1269,2.5659,4.6669,4.6669,0,0,0,2.2964-3.5095,4.7268,4.7268,0,0,0-.1068-2.0677,1.4394,1.4394,0,0,0-.9647-1.0919c-.6724-.1265-1.202.5191-1.7359.947a3.2109,3.2109,0,0,1-2.1824.6917.4833.4833,0,0,1-.2723-.0772c-.0077-.006-.0113-.0156-.0183-.0223a2.2479,2.2479,0,0,0-.4022-1.1163c-.0145-.02-.0339-.0361-.049-.056a.7331.7331,0,0,1,.1577-.3372,5.1367,5.1367,0,0,0,.7524-1.3993,3.3964,3.3964,0,0,0-.7989-3.2492A4.1368,4.1368,0,0,0,13.0269,6.1318ZM15.3016,13a1.2935,1.2935,0,0,1,.22.9773l-.0048.025a1.3689,1.3689,0,0,1-1.546,1.0874,1.3054,1.3054,0,0,1-.8433-.5522,1.3428,1.3428,0,0,1-.2253-1.0251A1.3418,1.3418,0,0,1,15.3016,13Zm-3.16,6.5381c.08.222.09.3908.0242.4579-.0708.077-.2686.0791-.5287.0067A4.9044,4.9044,0,0,1,9.0062,18.1a2.5912,2.5912,0,0,1-.28-2.809,2.5071,2.5071,0,0,1,2.47-1.4981c.5226.02.6908.1368.7009.2116.0028.0211.0085.0377.0118.0582a2.374,2.374,0,0,0,.4041,1.0491,2.4969,2.4969,0,0,0,.2966.3507A4.7693,4.7693,0,0,0,12.1417,19.5382ZM20.27,13.0423c.1519-.1192.271-.17.3442-.1472s.1428.13.2.3035a4.4169,4.4169,0,0,1-1.4379,4.4542,2.5832,2.5832,0,0,1-2.44.2562,2.4571,2.4571,0,0,1-1.5669-1.7674c-.0124-.06-.0606-.2986-.0167-.3559l.0165-.0223c.058-.0346.1187-.0611.1749-.1008a2.35,2.35,0,0,0,.8294-1.04,4.9779,4.9779,0,0,1,.9339-.1377,4.0718,4.0718,0,0,0,1.462-.3923A13.9342,13.9342,0,0,0,20.27,13.0423ZM15.6116,8.1314a2.5591,2.5591,0,0,1-.1595,3.3625.5957.5957,0,0,1-.2487.17,2.4124,2.4124,0,0,0-.6-.1928,2.3744,2.3744,0,0,0-1.0186.0509,4.2384,4.2384,0,0,0-3.2309-2.453c-.2508-.0458-.4116-.1331-.4411-.2391a.1735.1735,0,0,1-.002-.0809.82.82,0,0,1,.28-.39,4.627,4.627,0,0,1,3.3608-1.27A2.4965,2.4965,0,0,1,15.6116,8.1314Z" fill="#fff"/><path d="M19.0394,27.8707a9.9018,9.9018,0,0,0-13.46,3.743,9.8931,9.8931,0,0,0,17.1867,9.8037,9.9648,9.9648,0,0,0-3.7265-13.5467Zm2.859,13.0939a8.91,8.91,0,1,1,.8936-6.79A8.9358,8.9358,0,0,1,21.8984,40.9646Z" fill="#fff"/><path d="M20.59,32.1092q-.0542-.1-.113-.1981a5.3721,5.3721,0,0,0-2.4552-2.0929,2.4732,2.4732,0,0,0-1.143-.2553,1.1407,1.1407,0,0,0-.9621.589,2.416,2.416,0,0,0,.0615,1.4387,3.401,3.401,0,0,1-.788,2.7951,2.3092,2.3092,0,0,0-1.146-.2A3.87,3.87,0,0,0,12.31,31.7934,3.5891,3.5891,0,0,0,9.318,31.477a4.0134,4.0134,0,0,0-2.06,1.7608,5.6855,5.6855,0,0,0-.7,2.028,6.0141,6.0141,0,0,0-.04,1.0266,2.9786,2.9786,0,0,0,.205,1.1805,1.2767,1.2767,0,0,0,1.2679.8187,2.6254,2.6254,0,0,0,1.156-.7819,3.333,3.333,0,0,1,2.77-.7124,2.1767,2.1767,0,0,0,.0632.3552,2.2071,2.2071,0,0,0,.2506.5406,3.5621,3.5621,0,0,0-.0636,5.7329,4.6669,4.6669,0,0,0,4.1606.5289A4.725,4.725,0,0,0,18.139,42.954a1.44,1.44,0,0,0,.56-1.3453c-.1806-.66-.9928-.8535-1.6112-1.1464a3.21,3.21,0,0,1-1.577-1.66.4836.4836,0,0,1-.05-.2786.2583.2583,0,0,1,.0121-.0262,2.248,2.248,0,0,0,.8276-.85c.012-.022.0177-.0463.0289-.0686a.7336.7336,0,0,1,.3722-.0057,5.1368,5.1368,0,0,0,1.5875.0641,3.396,3.396,0,0,0,2.5719-2.14A4.1369,4.1369,0,0,0,20.59,32.1092ZM15.41,37.16a1.2935,1.2935,0,0,1-.7825.6255l-.0245.0067a1.369,1.369,0,0,1-1.6544-.9143,1.3058,1.3058,0,0,1,.1275-1,1.3431,1.3431,0,0,1,.8231-.6512A1.3419,1.3419,0,0,1,15.41,37.16Zm-7.2616.02c-.1646.1691-.3122.2516-.4011.2221-.1-.03-.1887-.2068-.2374-.4724a4.904,4.904,0,0,1,.5593-3.1983A2.5911,2.5911,0,0,1,10.472,32.25,2.5069,2.5069,0,0,1,12.9,33.8157c.2108.4787.1794.681.1165.7228-.0177.0117-.03.0242-.0471.036a2.3741,2.3741,0,0,0-.7665.8225,2.5035,2.5035,0,0,0-.1855.42A4.77,4.77,0,0,0,8.1482,37.18Zm9.3979,4.4659c.1737.0844.2716.1692.283.245.012.0742-.054.1852-.1853.3128A4.4168,4.4168,0,0,1,13.01,42.86a2.5829,2.5829,0,0,1-1.2982-2.0819,2.457,2.457,0,0,1,.9035-2.1823c.0485-.0374.2419-.1852.3127-.1708l.0272.0051c.0565.0371.1069.08.1672.1132a2.3515,2.3515,0,0,0,1.2983.2905,4.98,4.98,0,0,1,.5325.7794,4.07,4.07,0,0,0,.9926,1.143A13.9509,13.9509,0,0,0,17.5461,41.6461Zm2.3772-6.3378A2.5591,2.5591,0,0,1,16.83,36.6364a.5962.5962,0,0,1-.2617-.1492,2.41,2.41,0,0,0-.0891-.6236,2.3737,2.3737,0,0,0-.4915-.8936,4.2383,4.2383,0,0,0,.7917-3.9786c-.0686-.2455-.06-.4283.022-.5012a.1744.1744,0,0,1,.0718-.0372.8211.8211,0,0,1,.4732.0806A4.6268,4.6268,0,0,1,19.9589,33,2.497,2.497,0,0,1,19.9233,35.3083Z" fill="#fff"/></svg>