<svg width="50" height="50" viewBox="0 0 50 50" fill="none" xmlns="http://www.w3.org/2000/svg">
<path fill-rule="evenodd" clip-rule="evenodd" d="M17.4619 33.5012C17.4619 30.9475 19.5395 28.8699 22.0933 28.8699C24.647 28.8699 26.7246 30.9475 26.7246 33.5012C26.7246 36.055 24.647 38.1326 22.0933 38.1326C19.5395 38.1326 17.4619 36.055 17.4619 33.5012ZM18.739 33.5013C18.739 35.3509 20.2437 36.8556 22.0933 36.8556C23.9428 36.8556 25.4475 35.3509 25.4475 33.5013C25.4475 31.6518 23.9428 30.1471 22.0933 30.1471C20.2437 30.1471 18.739 31.6518 18.739 33.5013Z" fill="white"/>
<path fill-rule="evenodd" clip-rule="evenodd" d="M40.1462 37.8102L41.0653 39.7398C41.1596 39.9377 41.1458 40.1701 41.0289 40.3553C40.9119 40.5406 40.7081 40.653 40.4889 40.653H29.1045C28.8853 40.653 28.6815 40.5406 28.5645 40.3553C28.4475 40.17 28.4337 39.9376 28.528 39.7398L29.4471 37.8102C29.8069 37.0546 30.5802 36.5664 31.4172 36.5664H32.8386V8.29109C32.8386 5.87894 30.8758 3.91651 28.4632 3.91651C26.0506 3.91651 24.0878 5.87894 24.0878 8.29109V19.7934H24.1929C25.5699 19.7934 26.6901 20.9136 26.6901 22.2906V28.0286C28.2504 29.3417 29.2444 31.3072 29.2444 33.5012C29.2444 37.4448 26.0361 40.6531 22.0925 40.6531H14.2024C12.8573 40.6531 11.7222 39.7395 11.3833 38.5005H9.63856C9.28591 38.5005 9 38.2146 9 37.8619V33.6476C9 33.295 9.28591 33.0091 9.63856 33.0091H11.2795V30.6437C11.2795 25.3295 15.12 20.8956 20.1712 19.9709V8.29109C20.1712 3.71941 23.8909 0 28.4631 0C33.0353 0 36.755 3.71933 36.755 8.29109V36.5664H38.1761C39.013 36.5664 39.7863 37.0546 40.1462 37.8102ZM11.2803 34.2861H10.2779V37.2234H11.2803V34.2861ZM27.968 33.5013C27.968 36.7407 25.3326 39.376 22.0933 39.376C18.8539 39.376 16.2185 36.7407 16.2185 33.5013C16.2185 30.2619 18.8539 27.6265 22.0933 27.6265C25.3326 27.6265 27.968 30.2619 27.968 33.5013ZM25.4138 27.1698V22.2906C25.4138 21.6178 24.8665 21.0705 24.1936 21.0705H22.1306C16.852 21.0705 12.5574 25.365 12.5574 30.6437V37.7301C12.5574 38.6376 13.2957 39.3759 14.2032 39.3759H18.0215C16.1619 38.0831 14.9414 35.9325 14.9414 33.5011C14.9414 29.5576 18.1497 26.3492 22.0933 26.3492C23.2914 26.3492 24.4208 26.6468 25.4138 27.1698ZM22.8114 8.29122V19.7934H22.1306C21.9017 19.7934 21.6746 19.8014 21.4492 19.8155V8.29122C21.4492 4.63908 24.2558 1.63137 27.8254 1.30757V2.67656C25.0083 2.99491 22.8114 5.39079 22.8114 8.29122ZM29.1026 1.30757V2.67648C31.9197 2.99482 34.1165 5.39071 34.1165 8.29114V8.98198H35.4788V8.29123C35.4788 4.63899 32.6722 1.63137 29.1026 1.30757ZM34.1166 10.259H35.4788V36.5664H34.1166V10.259ZM30.6009 38.3594L30.1167 39.3759H39.4783L38.9942 38.3594C38.8448 38.046 38.5241 37.8435 38.177 37.8435H31.418C31.071 37.8435 30.7501 38.046 30.6009 38.3594Z" fill="white"/>
<path fill-rule="evenodd" clip-rule="evenodd" d="M28.8086 45.8052C28.1797 46.4271 27.3202 46.7591 26.437 46.7192V47.7989C27.6085 47.8378 28.7439 47.3908 29.5747 46.5637" fill="white"/>
<path fill-rule="evenodd" clip-rule="evenodd" d="M36.6944 41.8606C36.6944 43.9148 37.7099 47.7991 41.5532 47.7991V46.7194C37.8281 46.7194 37.7742 42.0582 37.7742 41.8606" fill="white"/>
<path fill-rule="evenodd" clip-rule="evenodd" d="M32.3755 42.9402C32.3755 42.9996 32.3382 48.8787 29.1363 48.8787L32.3755 42.9402Z" fill="white"/>
<path fill-rule="evenodd" clip-rule="evenodd" d="M29.1363 49.9585C33.4061 49.9585 33.4552 43.2269 33.4552 42.9402L29.1363 49.9585Z" fill="white"/>
<path fill-rule="evenodd" clip-rule="evenodd" d="M38.8539 48.8787C35.659 48.8787 35.6147 42.999 35.6147 42.9402L38.8539 48.8787Z" fill="white"/>
<path fill-rule="evenodd" clip-rule="evenodd" d="M34.5349 42.9402C34.5349 43.2269 34.5841 49.9585 38.8539 49.9585L34.5349 42.9402Z" fill="white"/>
</svg>
