<svg width="50" height="50" viewBox="0 0 50 50" fill="none" xmlns="http://www.w3.org/2000/svg">
<path fill-rule="evenodd" clip-rule="evenodd" d="M48 43.3988V7.60121C48 5.06406 45.9359 3 43.3988 3H7.60121C5.06406 3 3 5.06406 3 7.60121V43.3988C3 45.9359 5.06406 48 7.60121 48H43.3988C45.9359 48 48 45.9359 48 43.3988ZM4.31836 7.60121C4.31836 5.79087 5.79087 4.31836 7.60121 4.31836H43.3988C45.2091 4.31836 46.6816 5.79087 46.6816 7.60121V13.081H4.31836V7.60121ZM42.2871 42.287V19.8955L40.4689 18.9782C39.2954 18.3859 37.8747 18.3852 36.7009 18.9782C35.1539 19.7596 33.2766 19.7513 31.7454 18.9782C30.5716 18.3849 29.1358 18.3931 27.9774 18.9782C26.4332 19.7582 24.5668 19.7572 23.0222 18.9782C21.8491 18.3863 20.4277 18.3852 19.2546 18.9782C17.7073 19.7596 15.8307 19.7503 14.2991 18.9782C13.1266 18.387 11.7039 18.3863 10.5311 18.9782C10.5308 18.9782 8.71289 19.8955 8.71289 19.8955V42.287H14.0169C14.1666 40.9347 14.8419 40.0795 15.4269 39.582C15.7967 39.2678 16.1654 39.0625 16.4473 38.9338V33.9048C15.6521 33.6621 14.9051 33.2727 14.2328 32.7454C13.9465 32.5205 13.8964 32.1061 14.1209 31.8198C14.3458 31.5335 14.7602 31.4833 15.0465 31.7082C15.9367 32.4065 17.0134 32.8031 18.1409 32.8735C18.1436 32.8738 18.1464 32.8738 18.1491 32.8741C21.2177 33.0156 23.9619 30.4647 23.9619 27.3676V23.0204C23.9619 22.7156 23.714 22.4677 23.4092 22.4677H13.4844C13.1795 22.4677 12.9316 22.7156 12.9316 23.0204V27.3676C12.9316 28.2637 13.1411 29.1196 13.5541 29.912C13.7223 30.2347 13.597 30.6329 13.2743 30.8012C12.9512 30.9694 12.5533 30.8441 12.3851 30.5214C11.88 29.5528 11.6133 28.4621 11.6133 27.3676V23.0204C11.6133 21.9888 12.4527 21.1493 13.4844 21.1493H23.4092C24.4408 21.1493 25.2803 21.9888 25.2803 23.0204V26.0688C27.0165 24.6787 29.19 23.9031 31.4405 23.9031C36.8719 23.9031 41.2908 28.322 41.2908 33.7537C41.2908 37.396 39.304 40.5824 36.3572 42.287H42.2871ZM18.4468 34.2013C18.6768 34.2013 18.9037 34.1896 19.1279 34.1673V38.7277H17.7656V34.167C17.767 34.167 17.7684 34.167 17.7701 34.1673C17.8714 34.1762 18.3225 34.2013 18.4468 34.2013ZM19.6858 40.0459H17.2074C16.8806 40.1595 15.5982 40.7016 15.3466 42.2871H21.547C21.2953 40.7016 20.013 40.1595 19.6858 40.0459ZM22.8763 42.2871C22.6638 40.404 21.4062 39.3596 20.4463 38.9277V33.9021C20.8469 33.7792 21.2315 33.6196 21.5971 33.4287L21.5962 33.4565C21.5931 33.5557 21.5899 33.6546 21.5899 33.7538C21.5899 37.3961 23.5767 40.5825 26.5234 42.2871H22.8763ZM25.2576 27.8971C25.169 29.0438 24.7811 30.1668 24.15 31.1278C23.8284 31.6173 23.4425 32.0657 23.0064 32.4568C22.9412 32.8845 22.9082 33.3199 22.9082 33.7538C22.9082 38.4587 26.7356 42.2861 31.4405 42.2861C36.1451 42.2861 39.9728 38.4587 39.9728 33.7538C39.9728 29.0493 36.1451 25.2216 31.4405 25.2216C29.1066 25.2216 26.8671 26.1849 25.2604 27.872C25.2597 27.8803 25.2583 27.8885 25.2576 27.8971ZM42.2871 18.419L41.0625 17.8011C39.521 17.0238 37.6481 17.0227 36.1066 17.8014C34.9331 18.394 33.5135 18.3943 32.3397 17.8014C30.7964 17.0221 28.927 17.0227 27.3835 17.8014C26.2261 18.385 24.789 18.3936 23.6162 17.8011C22.076 17.0231 20.2012 17.0231 18.6603 17.8014C17.4858 18.3947 16.0672 18.3943 14.893 17.8011C13.3646 17.0293 11.4825 17.0221 9.93718 17.8014L8.71289 18.419V14.3994H42.2871V18.419ZM4.31836 14.3994V43.3989C4.31836 45.2092 5.79087 46.6817 7.60121 46.6817H43.3988C45.2091 46.6817 46.6816 45.2092 46.6816 43.3989V14.3994H43.6055V42.9464C43.6055 43.3103 43.3102 43.6055 42.9463 43.6055H8.05371C7.68979 43.6055 7.39453 43.3103 7.39453 42.9464V14.3994H4.31836Z" fill="white"/>
<path fill-rule="evenodd" clip-rule="evenodd" d="M41.9177 11.5004H27.4954C26.5646 11.5004 25.8076 10.743 25.8076 9.81226V7.58719C25.8076 6.65644 26.5646 5.89941 27.4954 5.89941H41.9177C42.8484 5.89941 43.6055 6.65644 43.6055 7.58719V9.81226C43.6055 10.743 42.8484 11.5004 41.9177 11.5004ZM27.4954 7.21781C27.2918 7.21781 27.126 7.38329 27.126 7.58722V9.8123C27.126 10.0162 27.2918 10.1821 27.4954 10.1821H41.9177C42.1213 10.1821 42.2871 10.0162 42.2871 9.8123V7.58722C42.2871 7.38329 42.1213 7.21781 41.9177 7.21781H27.4954Z" fill="white"/>
<path fill-rule="evenodd" clip-rule="evenodd" d="M14.8797 8.6999C14.8797 10.147 13.7021 11.3246 12.255 11.3246C10.8078 11.3246 9.63025 10.147 9.63025 8.6999C9.63025 7.25245 10.8075 6.0752 12.255 6.0752C13.7021 6.0752 14.8797 7.25245 14.8797 8.6999ZM13.5613 8.69993C13.5613 7.9793 12.9752 7.39359 12.255 7.39359C11.5347 7.39359 10.9486 7.9793 10.9486 8.69993C10.9486 9.42022 11.5347 10.0063 12.255 10.0063C12.9752 10.0063 13.5613 9.42022 13.5613 8.69993Z" fill="white"/>
</svg>
