<svg width="50" height="50" viewBox="0 0 50 50" fill="none" xmlns="http://www.w3.org/2000/svg">
<path fill-rule="evenodd" clip-rule="evenodd" d="M48 7.60121V43.3988C48 45.9359 45.9359 48 43.3988 48H7.60121C5.06406 48 3 45.9359 3 43.3988V7.60121C3 5.06406 5.06406 3 7.60121 3H43.3988C45.9359 3 48 5.06406 48 7.60121ZM7.60121 4.31836C5.79087 4.31836 4.31836 5.79087 4.31836 7.60121V13.081H46.6816V7.60121C46.6816 5.79087 45.2091 4.31836 43.3988 4.31836H7.60121ZM4.31836 43.3989V14.3994H7.39453V42.9464C7.39453 43.3103 7.68979 43.6055 8.05371 43.6055H42.9463C43.3102 43.6055 43.6055 43.3103 43.6055 42.9464V14.3994H46.6816V43.3989C46.6816 45.2092 45.2091 46.6817 43.3988 46.6817H7.60121C5.79087 46.6817 4.31836 45.2092 4.31836 43.3989ZM42 15H9V42H42V15Z" fill="white"/>
<path fill-rule="evenodd" clip-rule="evenodd" d="M41.9177 11.5004H27.4954C26.5646 11.5004 25.8076 10.743 25.8076 9.81226V7.58719C25.8076 6.65644 26.5646 5.89941 27.4954 5.89941H41.9177C42.8484 5.89941 43.6055 6.65644 43.6055 7.58719V9.81226C43.6055 10.743 42.8484 11.5004 41.9177 11.5004ZM27.4954 7.21781C27.2918 7.21781 27.126 7.38329 27.126 7.58722V9.8123C27.126 10.0162 27.2918 10.1821 27.4954 10.1821H41.9177C42.1213 10.1821 42.2871 10.0162 42.2871 9.8123V7.58722C42.2871 7.38329 42.1213 7.21781 41.9177 7.21781H27.4954Z" fill="white"/>
<path fill-rule="evenodd" clip-rule="evenodd" d="M14.8797 8.6999C14.8797 10.147 13.7021 11.3246 12.255 11.3246C10.8078 11.3246 9.63025 10.147 9.63025 8.6999C9.63025 7.25245 10.8075 6.0752 12.255 6.0752C13.7021 6.0752 14.8797 7.25245 14.8797 8.6999ZM13.5613 8.69993C13.5613 7.9793 12.9752 7.39359 12.255 7.39359C11.5347 7.39359 10.9486 7.9793 10.9486 8.69993C10.9486 9.42022 11.5347 10.0063 12.255 10.0063C12.9752 10.0063 13.5613 9.42022 13.5613 8.69993Z" fill="white"/>
</svg>
