<svg width="49" height="49" viewBox="0 0 49 49" fill="none" xmlns="http://www.w3.org/2000/svg">
<path fill-rule="evenodd" clip-rule="evenodd" d="M16.4605 33.4987C16.4605 30.9451 18.5379 28.8677 21.0915 28.8677C23.645 28.8677 25.7225 30.9451 25.7225 33.4987C25.7225 36.0522 23.645 38.1297 21.0915 38.1297C18.5379 38.1297 16.4605 36.0522 16.4605 33.4987ZM17.7375 33.4988C17.7375 35.3482 19.2421 36.8528 21.0915 36.8528C22.9409 36.8528 24.4455 35.3482 24.4455 33.4988C24.4455 31.6494 22.9409 30.1448 21.0915 30.1448C19.2421 30.1448 17.7375 31.6494 17.7375 33.4988Z" fill="white"/>
<path fill-rule="evenodd" clip-rule="evenodd" d="M39.1439 37.8073L40.0629 39.7368C40.1572 39.9347 40.1434 40.167 40.0265 40.3523C39.9095 40.5375 39.7057 40.6499 39.4866 40.6499H28.103C27.8838 40.6499 27.68 40.5375 27.563 40.3523C27.4461 40.1669 27.4323 39.9346 27.5265 39.7368L28.4456 37.8073C28.8053 37.0518 29.5786 36.5636 30.4155 36.5636H31.8368V8.29046C31.8368 5.8785 29.8741 3.91622 27.4617 3.91622C25.0493 3.91622 23.0866 5.8785 23.0866 8.29046V19.7919H23.1918C24.5687 19.7919 25.6888 20.912 25.6888 22.2889V28.0265C27.249 29.3395 28.2428 31.3048 28.2428 33.4986C28.2428 37.4419 25.0348 40.65 21.0915 40.65H13.202C11.857 40.65 10.722 39.7365 10.3831 38.4976H8.63851C8.28588 38.4976 8 38.2117 8 37.8591V33.6451C8 33.2924 8.28588 33.0066 8.63851 33.0066H10.2793V30.6414C10.2793 25.3275 14.1195 20.894 19.1703 19.9694V8.29046C19.1703 3.71913 22.8898 0 27.4616 0C32.0335 0 35.753 3.71904 35.753 8.29046V36.5636H37.1739C38.0107 36.5636 38.784 37.0518 39.1439 37.8073ZM10.2793 34.2836H9.27703V37.2206H10.2793V34.2836ZM26.9658 33.4987C26.9658 36.7379 24.3306 39.3731 21.0915 39.3731C17.8523 39.3731 15.2171 36.7379 15.2171 33.4987C15.2171 30.2596 17.8523 27.6244 21.0915 27.6244C24.3306 27.6244 26.9658 30.2596 26.9658 33.4987ZM24.4118 27.1677V22.2889C24.4118 21.6161 23.8645 21.0689 23.1917 21.0689H21.1289C15.8506 21.0689 11.5563 25.3631 11.5563 30.6414V37.7273C11.5563 38.6347 12.2945 39.3729 13.202 39.3729H17.02C15.1605 38.0803 13.9401 35.9298 13.9401 33.4986C13.9401 29.5553 17.1482 26.3473 21.0915 26.3473C22.2895 26.3473 23.4188 26.6448 24.4118 27.1677ZM21.8096 8.2906V19.7919H21.1289C20.8999 19.7919 20.6729 19.7999 20.4474 19.814V8.2906C20.4474 4.63873 23.2538 1.63124 26.8232 1.30747V2.67636C24.0063 2.99468 21.8096 5.39039 21.8096 8.2906ZM28.1002 1.30747V2.67628C30.9172 2.9946 33.1138 5.3903 33.1138 8.29052V8.9813H34.476V8.2906C34.476 4.63864 31.6696 1.63124 28.1002 1.30747ZM33.1139 10.2582H34.476V36.5636H33.1139V10.2582ZM29.5985 38.3565L29.1143 39.3729H38.4753L37.9911 38.3565C37.8418 38.0431 37.5211 37.8407 37.174 37.8407H30.4155C30.0685 37.8407 29.7477 38.0431 29.5985 38.3565Z" fill="white"/>
</svg>
