<svg width="50" height="50" viewBox="0 0 50 50" fill="none" xmlns="http://www.w3.org/2000/svg">
<path fill-rule="evenodd" clip-rule="evenodd" d="M14.2157 0.00160144C14.135 0.00808011 14.0543 0.0328166 13.9781 0.0775781C13.0621 0.62355 12.4604 1.69429 12.3978 2.89343C12.4074 3.65201 12.698 4.3682 13.1988 4.85115C13.502 5.20806 13.6372 5.37886 13.6372 5.78525C13.5736 6.43547 13.2367 7.00559 12.7398 7.30714C12.4337 7.48619 12.3101 7.92084 12.4629 8.27835C12.6157 8.63585 12.9885 8.78014 13.2942 8.60169C14.2112 8.05572 14.8129 6.98498 14.8754 5.78525C14.8709 5.02725 14.5743 4.31166 14.0735 3.8287C13.7698 3.47238 13.6372 3.29981 13.6372 2.89343C13.7007 2.24262 14.0376 1.67073 14.5355 1.36918C14.8411 1.18955 14.9647 0.755478 14.8104 0.398565C14.6949 0.131174 14.4563 -0.0172455 14.2157 0.00160144ZM22.8938 0.00160144C22.8131 0.00808011 22.7329 0.0328166 22.6562 0.0775781C21.7395 0.62355 21.1387 1.69429 21.0756 2.89343C21.0811 3.65201 21.3768 4.3682 21.8767 4.85115C22.1804 5.20806 22.3146 5.37886 22.3146 5.78525C22.2511 6.43547 21.9156 7.00559 21.4192 7.30714C21.1129 7.48619 20.9888 7.92084 21.1417 8.27835C21.2945 8.63585 21.6659 8.78014 21.9721 8.60169C22.8892 8.05572 23.4906 6.98498 23.5532 5.78525C23.5481 5.02725 23.254 4.31166 22.753 3.8287C22.4498 3.47238 22.3146 3.29981 22.3146 2.89343C22.3782 2.24262 22.7157 1.67073 23.2141 1.36918C23.5194 1.18955 23.6425 0.755478 23.4891 0.398565C23.3731 0.131174 23.1349 -0.0172455 22.8938 0.00160144ZM30.0956 0.0775781C30.1722 0.0328166 30.2519 0.00808011 30.3321 0.00160144C30.5732 -0.0172455 30.8113 0.131174 30.9273 0.398565C31.0807 0.755478 30.9586 1.18955 30.6534 1.36918C30.1546 1.67073 29.8171 2.24262 29.7541 2.89343C29.7541 3.29981 29.8867 3.47238 30.1904 3.8287C30.6913 4.31166 30.9874 5.02725 30.9924 5.78525C30.9294 6.98498 30.3276 8.05572 29.4111 8.60169C29.1044 8.78014 28.7316 8.63585 28.5793 8.27835C28.4264 7.92084 28.5515 7.48619 28.8572 7.30714C29.3541 7.00559 29.6905 6.43547 29.7541 5.78525C29.7541 5.37886 29.6194 5.20806 29.3152 4.85115C28.8143 4.3682 28.5192 3.65201 28.5142 2.89343C28.5772 1.69429 29.179 0.62355 30.0956 0.0775781Z" fill="white"/>
<path fill-rule="evenodd" clip-rule="evenodd" d="M47.4622 11H2.5378C1.13844 11 0 12.1384 0 13.5378V39.4557C0 40.8551 1.13844 41.9935 2.5378 41.9935H47.4622C48.8616 41.9935 50 40.8551 50 39.4557V13.5378C50 12.1384 48.8616 11 47.4622 11ZM1.61986 39.4557V13.5378C1.61986 13.0316 2.03163 12.6198 2.53778 12.6198H38.0129V40.3736H2.53778C2.03163 40.3736 1.61986 39.9618 1.61986 39.4557ZM47.4622 40.3736C47.9683 40.3736 48.3801 39.9618 48.3801 39.4557V13.5378C48.3801 13.0316 47.9683 12.6198 47.4622 12.6198H39.6328V40.3736H47.4622Z" fill="white"/>
<path d="M35.3672 15.3196C34.9199 15.3196 34.5573 15.6822 34.5573 16.1295V36.8639C34.5573 37.3112 34.9199 37.6738 35.3672 37.6738C35.8145 37.6738 36.1771 37.3112 36.1771 36.8639V16.1295C36.1771 15.6822 35.8145 15.3196 35.3672 15.3196Z" fill="white"/>
<path fill-rule="evenodd" clip-rule="evenodd" d="M5.12958 15.3196H31.9114C32.3587 15.3196 32.7214 15.6822 32.7214 16.1295V36.8639C32.7214 37.3112 32.3587 37.6738 31.9114 37.6738H5.12958C4.68228 37.6738 4.31964 37.3112 4.31964 36.8639V16.1295C4.31964 15.6822 4.68228 15.3196 5.12958 15.3196ZM5.9395 36.054H31.1015V16.9396H5.9395V36.054Z" fill="white"/>
<path fill-rule="evenodd" clip-rule="evenodd" d="M44.0065 31.7344C42.1308 31.7344 40.6048 33.2604 40.6048 35.1361C40.6048 37.0118 42.1308 38.5378 44.0065 38.5378C45.8822 38.5378 47.4082 37.0118 47.4082 35.1361C47.4082 33.2604 45.8822 31.7344 44.0065 31.7344ZM45.7884 35.1362C45.7884 35.3278 45.7572 35.5121 45.7009 35.6852L43.4575 33.4418C43.6306 33.3855 43.8148 33.3543 44.0065 33.3543C44.989 33.3543 45.7884 34.1537 45.7884 35.1362ZM42.3121 34.5871C42.2558 34.7602 42.2246 34.9446 42.2246 35.1361C42.2246 36.1186 43.024 36.918 44.0065 36.918C44.1982 36.918 44.3824 36.8868 44.5555 36.8305L42.3121 34.5871Z" fill="white"/>
<path fill-rule="evenodd" clip-rule="evenodd" d="M44.0065 23.9587C42.1308 23.9587 40.6048 25.4848 40.6048 27.3605C40.6048 29.2362 42.1308 30.7622 44.0065 30.7622C45.8822 30.7622 47.4082 29.2362 47.4082 27.3605C47.4082 25.4848 45.8822 23.9587 44.0065 23.9587ZM45.7884 27.3606C45.7884 27.5521 45.7572 27.7364 45.7009 27.9095L43.4575 25.6662C43.6306 25.6099 43.8148 25.5787 44.0065 25.5787C44.989 25.5787 45.7884 26.3781 45.7884 27.3606ZM42.3121 26.8115C42.2558 26.9846 42.2246 27.1688 42.2246 27.3604C42.2246 28.3429 43.024 29.1423 44.0065 29.1423C44.1982 29.1423 44.3824 29.111 44.5555 29.0548L42.3121 26.8115Z" fill="white"/>
<path d="M42.2786 22.123H45.7343C46.1816 22.123 46.5443 21.7604 46.5443 21.3131C46.5443 20.8658 46.1816 20.5032 45.7343 20.5032H42.2786C41.8313 20.5032 41.4687 20.8658 41.4687 21.3131C41.4687 21.7604 41.8313 22.123 42.2786 22.123Z" fill="white"/>
<path d="M42.2786 19.5312H45.7343C46.1816 19.5312 46.5443 19.1686 46.5443 18.7213C46.5443 18.274 46.1816 17.9114 45.7343 17.9114H42.2786C41.8313 17.9114 41.4687 18.274 41.4687 18.7213C41.4687 19.1686 41.8313 19.5312 42.2786 19.5312Z" fill="white"/>
<path d="M42.2786 16.9395H45.7343C46.1816 16.9395 46.5443 16.5768 46.5443 16.1295C46.5443 15.6822 46.1816 15.3196 45.7343 15.3196H42.2786C41.8313 15.3196 41.4687 15.6822 41.4687 16.1295C41.4687 16.5768 41.8313 16.9395 42.2786 16.9395Z" fill="white"/>
<path fill-rule="evenodd" clip-rule="evenodd" d="M9.60284 34.6891H29.6922C29.9907 34.6891 30.2152 34.9138 30.2152 35.2125C30.2152 35.5112 29.9907 35.748 29.6922 35.748H9.60284C9.30436 35.748 9.07983 35.5112 9.07983 35.2125C9.07983 34.9138 9.30436 34.6891 9.60284 34.6891ZM16.7654 26.1949C19.0804 26.1949 21.9359 27.0782 24.1711 28.5436C26.2911 29.9339 27.8127 31.8183 27.9652 33.9104H11.3174C11.303 33.7374 11.2933 33.563 11.2933 33.3874C11.2933 32.0535 11.6131 30.8046 12.1688 29.6878C12.1712 29.6866 12.1844 29.6714 12.2295 29.6632C12.3198 29.6469 12.486 29.6465 12.6673 29.6511C12.8487 29.6558 13.0432 29.6659 13.251 29.6391C13.4588 29.6118 13.7122 29.539 13.8834 29.3104C14.7302 28.1807 14.8527 27.2565 15.0508 26.8032C15.1496 26.577 15.217 26.4788 15.4399 26.3776C15.6625 26.2759 16.0754 26.1949 16.7654 26.1949ZM9.89471 23.7363C10.2329 23.7363 10.4905 23.9883 10.4905 24.3205C10.4905 24.4654 10.4407 24.5962 10.3566 24.6978C10.2189 24.8626 10.2399 25.1083 10.4045 25.2466C10.4201 25.2598 10.4368 25.2715 10.4543 25.282L13.9807 27.3873C13.9924 27.3962 14.0044 27.4044 14.0173 27.4118C13.9301 27.6708 13.8204 27.9453 13.6523 28.2514L9.84607 25.988C9.66201 25.877 9.42307 25.9362 9.31178 26.1204C9.31139 26.1208 9.31139 26.1212 9.311 26.1216C9.20243 26.2984 9.02576 26.4137 8.81251 26.4137C8.48019 26.4137 8.21635 26.15 8.21635 25.8175C8.21635 25.4853 8.48019 25.2212 8.81251 25.2212C8.85376 25.2212 8.90591 25.2228 8.98257 25.2454C9.18959 25.3038 9.40439 25.1831 9.46277 24.9763C9.49429 24.8645 9.47405 24.7446 9.40829 24.6492C9.34058 24.5503 9.29894 24.4358 9.29894 24.3205C9.29894 23.9883 9.55694 23.7363 9.89471 23.7363ZM9.8947 22.9575C9.146 22.9575 8.52065 23.5658 8.52065 24.3205C8.52065 24.3844 8.56073 24.4303 8.56929 24.4911C7.93304 24.6107 7.43845 25.1481 7.43845 25.8175C7.43845 26.5726 8.05796 27.1926 8.8125 27.1926C9.16584 27.1926 9.45964 27.0232 9.70013 26.8032L13.1538 28.8722C13.0429 28.8866 12.8654 28.8769 12.6794 28.8722C12.4938 28.8671 12.293 28.8586 12.0836 28.8963C11.8743 28.9345 11.6178 29.0506 11.4878 29.3103C10.8718 30.5386 10.515 31.9215 10.515 33.3873C10.515 33.5598 10.5271 33.7354 10.5391 33.9103H9.60285C8.88683 33.9103 8.30156 34.496 8.30156 35.2125C8.30156 35.9295 8.88683 36.5269 9.60285 36.5269H29.6922C30.4083 36.5269 30.9935 35.9295 30.9935 35.2125C30.9935 34.496 30.4086 33.9103 29.6922 33.9103H28.756C28.6038 31.4658 26.8577 29.3812 24.5968 27.8986C22.2301 26.3471 19.2749 25.416 16.7654 25.416C16.0237 25.416 15.5193 25.4919 15.1236 25.6719C14.7278 25.8518 14.4757 26.1614 14.3332 26.4869C14.3095 26.5415 14.2932 26.6022 14.2725 26.6575L11.1108 24.759C11.1649 24.611 11.2688 24.4864 11.2688 24.3209C11.2688 23.5662 10.6434 22.9579 9.8947 22.9579V22.9575Z" fill="white"/>
</svg>
