<svg xmlns="http://www.w3.org/2000/svg" viewBox="0 0 52 26.5137"><path d="M47.3988,0H4.6012A4.6064,4.6064,0,0,0,0,4.6012v8.7976A4.6064,4.6064,0,0,0,4.6012,18H47.3988A4.6064,4.6064,0,0,0,52,13.3988V4.6012A4.6064,4.6064,0,0,0,47.3988,0Zm3.2828,13.3989a3.2863,3.2863,0,0,1-3.2828,3.2828H4.6012a3.2863,3.2863,0,0,1-3.2828-3.2828V4.6012A3.2863,3.2863,0,0,1,4.6012,1.3184H47.3988a3.2863,3.2863,0,0,1,3.2828,3.2828Z" fill="#fff" fill-rule="evenodd"/><path d="M40.24,10.2909c-.4533-.0007-.9054-.061-.9168-.6371-.0113-.57.4211-.6735.8845-.6742l5.2577-.0026c.4691-.0012.9156.1086.9231.6453.0084.5952-.4738.6741-.9618.6707C44.55,10.287,41.0921,10.2922,40.24,10.2909Z" fill="#fff"/><path d="M4.5745,13.57c-.4534-.0007-.9055-.0611-.9169-.6371-.0112-.57.4212-.6736.8845-.6742l42.8773-.0026c.4691-.0012.9156.1086.9231.6453.0083.5952-.4738.6741-.9618.6707C46.5044,13.5661,5.4271,13.5713,4.5745,13.57Z" fill="#fff"/><path d="M9.18,21.1875c.5978-.3073.07-1.2067-.5258-.8995a1.7914,1.7914,0,0,0-1.012,2.3438c.351,1.0256,1.5132,2.1524.1872,2.9094a.5212.5212,0,0,0,.5257.8995A1.9458,1.9458,0,0,0,9.397,23.9773C9.0807,23.0062,7.88,21.8561,9.18,21.1875Z" fill="#fff"/><path d="M16.2691,21.1875c.5979-.3073.0706-1.2067-.5257-.8995a1.7915,1.7915,0,0,0-1.0121,2.3438c.3511,1.0256,1.5133,2.1524.1873,2.9094a.5212.5212,0,0,0,.5257.8995,1.9459,1.9459,0,0,0,1.0423-2.4634C16.17,23.0062,14.97,21.8561,16.2691,21.1875Z" fill="#fff"/><path d="M23.303,21.1875c.5979-.3073.0706-1.2067-.5257-.8995a1.7915,1.7915,0,0,0-1.0121,2.3438c.3511,1.0256,1.5133,2.1524.1873,2.9094a.5212.5212,0,0,0,.5257.8995,1.9459,1.9459,0,0,0,1.0423-2.4634C23.2042,23.0062,22.0038,21.8561,23.303,21.1875Z" fill="#fff"/><path d="M30.0055,21.1875c.5978-.3073.0706-1.2067-.5257-.8995a1.7914,1.7914,0,0,0-1.0121,2.3438c.351,1.0256,1.5132,2.1524.1872,2.9094a.5212.5212,0,0,0,.5257.8995,1.9457,1.9457,0,0,0,1.0423-2.4634C29.9067,23.0062,28.7063,21.8561,30.0055,21.1875Z" fill="#fff"/><path d="M37.0951,21.1875c.5978-.3073.07-1.2067-.5258-.8995a1.7913,1.7913,0,0,0-1.012,2.3438c.351,1.0256,1.5132,2.1524.1872,2.9094a.5212.5212,0,0,0,.5257.8995,1.9458,1.9458,0,0,0,1.0423-2.4634C36.9962,23.0062,35.7959,21.8561,37.0951,21.1875Z" fill="#fff"/><path d="M44.129,21.1875c.5978-.3073.0705-1.2067-.5258-.8995a1.7913,1.7913,0,0,0-1.012,2.3438c.351,1.0256,1.5132,2.1524.1872,2.9094a.5212.5212,0,0,0,.5257.8995,1.9459,1.9459,0,0,0,1.0423-2.4634C44.03,23.0062,42.83,21.8561,44.129,21.1875Z" fill="#fff"/></svg>