<svg width="50" height="50" viewBox="0 0 50 50" fill="none" xmlns="http://www.w3.org/2000/svg">
<g clip-path="url(#clip0)">
<path fill-rule="evenodd" clip-rule="evenodd" d="M24.392 9.75714C22.3276 9.75714 19.4326 10.0517 17.0692 10.3465C15.7242 10.5143 14.6891 11.6566 14.6485 13.0749L13.7584 44.2306C13.7112 45.8801 15.0356 47.2429 16.6858 47.2429H32.0983C33.7485 47.2429 35.0728 45.8801 35.0257 44.2306L34.1355 13.0749C34.095 11.6566 33.0598 10.5143 31.7149 10.3465C29.3514 10.0517 26.4565 9.75714 24.392 9.75714ZM16.8517 8.60289C14.6148 8.88193 12.9565 10.7714 12.8921 13.0247L12.002 44.1805C11.9265 46.8197 14.0455 49 16.6858 49H32.0983C34.7386 49 36.8575 46.8197 36.7821 44.1805L35.8919 13.0247C35.8276 10.7714 34.1692 8.88193 31.9324 8.60289C29.5641 8.30747 26.5749 8 24.392 8C22.2091 8 19.2199 8.30747 16.8517 8.60289Z" fill="white"/>
<path d="M19.8364 17.9655C19.8364 17.4938 20.2188 17.1113 20.6906 17.1113H28.0934C28.5651 17.1113 28.9475 17.4938 28.9475 17.9655C28.9475 18.4372 28.5651 18.8197 28.0934 18.8197H20.6906C20.2188 18.8197 19.8364 18.4372 19.8364 17.9655Z" fill="white"/>
<path d="M19.8364 21.3815C19.8364 20.9098 20.2188 20.5273 20.6906 20.5273H28.0934C28.5651 20.5273 28.9475 20.9098 28.9475 21.3815C28.9475 21.8533 28.5651 22.2357 28.0934 22.2357H20.6906C20.2188 22.2357 19.8364 21.8533 19.8364 21.3815Z" fill="white"/>
<path d="M19.8364 24.7985C19.8364 24.3268 20.2188 23.9443 20.6906 23.9443H28.0934C28.5651 23.9443 28.9475 24.3268 28.9475 24.7985C28.9475 25.2702 28.5651 25.6527 28.0934 25.6527H20.6906C20.2188 25.6527 19.8364 25.2702 19.8364 24.7985Z" fill="white"/>
<path d="M19.8364 28.2155C19.8364 27.7438 20.2188 27.3613 20.6906 27.3613H28.0934C28.5651 27.3613 28.9475 27.7438 28.9475 28.2155C28.9475 28.6872 28.5651 29.0697 28.0934 29.0697H20.6906C20.2188 29.0697 19.8364 28.6872 19.8364 28.2155Z" fill="white"/>
<path fill-rule="evenodd" clip-rule="evenodd" d="M24.3921 14.3128C21.7335 14.3128 19.5709 14.9153 18.3279 15.3664C18.297 15.3776 18.2688 15.3966 18.2405 15.4403C18.2086 15.4894 18.177 15.5726 18.177 15.6847V29.9266C18.177 30.0387 18.2086 30.1219 18.2405 30.171C18.2688 30.2147 18.297 30.2337 18.3279 30.2449C19.5709 30.696 21.7335 31.2985 24.3921 31.2985C27.0507 31.2985 29.2132 30.696 30.4563 30.2449C30.4872 30.2337 30.5154 30.2147 30.5437 30.171C30.5755 30.1219 30.6072 30.0387 30.6072 29.9266V15.6847C30.6072 15.5726 30.5755 15.4894 30.5437 15.4403C30.5154 15.3966 30.4872 15.3776 30.4563 15.3664C29.2132 14.9153 27.0507 14.3128 24.3921 14.3128ZM17.7284 13.7147C16.9077 14.0125 16.4199 14.8116 16.4199 15.6847V29.9266C16.4199 30.7998 16.9077 31.5988 17.7284 31.8966C19.1048 32.3961 21.4746 33.0557 24.3921 33.0557C27.3095 33.0557 29.6793 32.3961 31.0557 31.8966C31.8765 31.5988 32.3643 30.7998 32.3643 29.9266V15.6847C32.3643 14.8116 31.8765 14.0125 31.0557 13.7147C29.6793 13.2152 27.3095 12.5557 24.3921 12.5557C21.4746 12.5557 19.1048 13.2152 17.7284 13.7147Z" fill="white"/>
<path d="M39.3995 7.84277C39.0407 8.04988 38.582 7.92697 38.3749 7.56825C38.1678 7.20953 38.2907 6.75084 38.6495 6.54374L40.8145 5.29374C41.1732 5.08663 41.6319 5.20953 41.839 5.56825C42.0461 5.92697 41.9232 6.38567 41.5645 6.59277L39.3995 7.84277Z" fill="white"/>
<path d="M9.81453 7.84277C10.1733 8.04988 10.6319 7.92697 10.8391 7.56825C11.0462 7.20953 10.9233 6.75084 10.5645 6.54374L8.39947 5.29374C8.04075 5.08663 7.58206 5.20953 7.37495 5.56825C7.16784 5.92697 7.29075 6.38567 7.64947 6.59277L9.81453 7.84277Z" fill="white"/>
<path d="M14.4794 5.56825C14.6865 5.92697 15.1452 6.04988 15.504 5.84277C15.8627 5.63567 15.9856 5.17697 15.7785 4.81825L14.0285 1.78717C13.8214 1.42845 13.3627 1.30554 13.004 1.51265C12.6452 1.71975 12.5223 2.17845 12.7294 2.53717L14.4794 5.56825Z" fill="white"/>
<path d="M34.7346 5.56825C34.5275 5.92697 34.0688 6.04988 33.71 5.84277C33.3513 5.63567 33.2284 5.17697 33.4355 4.81825L35.1855 1.78717C35.3926 1.42845 35.8513 1.30554 36.21 1.51265C36.5688 1.71975 36.6917 2.17845 36.4846 2.53717L34.7346 5.56825Z" fill="white"/>
<path d="M27.8202 4.49333C27.713 4.89343 27.3018 5.13087 26.9017 5.02366C26.5016 4.91645 26.2641 4.5052 26.3713 4.1051L27.2772 0.72436C27.3844 0.324261 27.7956 0.0868237 28.1957 0.19403C28.5958 0.301236 28.8333 0.712489 28.7261 1.11259L27.8202 4.49333Z" fill="white"/>
<path d="M22.8427 4.10515C22.9499 4.50525 22.7125 4.9165 22.3124 5.0237C21.9123 5.13091 21.501 4.89347 21.3938 4.49337L20.4879 1.11263C20.3807 0.712534 20.6182 0.301281 21.0183 0.194075C21.4184 0.0868687 21.8296 0.324305 21.9368 0.724405L22.8427 4.10515Z" fill="white"/>
</g>
<defs>
<clipPath id="clip0">
<rect width="50" height="50" fill="white"/>
</clipPath>
</defs>
</svg>
