<svg width="50" height="50" viewBox="0 0 50 50" fill="none" xmlns="http://www.w3.org/2000/svg">
<path fill-rule="evenodd" clip-rule="evenodd" d="M47.4622 11H2.5378C1.13844 11 0 12.1384 0 13.5378V39.4557C0 40.8551 1.13844 41.9935 2.5378 41.9935H47.4622C48.8616 41.9935 50 40.8551 50 39.4557V13.5378C50 12.1384 48.8616 11 47.4622 11ZM1.61986 39.4557V13.5378C1.61986 13.0317 2.03163 12.6199 2.53778 12.6199H38.0129V40.3737H2.53778C2.03163 40.3737 1.61986 39.9619 1.61986 39.4557ZM47.4622 40.3737C47.9683 40.3737 48.3801 39.9619 48.3801 39.4557V13.5378C48.3801 13.0317 47.9683 12.6199 47.4622 12.6199H39.6328V40.3737H47.4622Z" fill="white"/>
<path d="M35.3672 15.3198C34.9199 15.3198 34.5573 15.6825 34.5573 16.1298V36.8641C34.5573 37.3114 34.9199 37.674 35.3672 37.674C35.8145 37.674 36.1771 37.3114 36.1771 36.8641V16.1298C36.1771 15.6825 35.8145 15.3198 35.3672 15.3198Z" fill="white"/>
<path fill-rule="evenodd" clip-rule="evenodd" d="M5.12958 15.3198H31.9114C32.3587 15.3198 32.7214 15.6825 32.7214 16.1298V36.8641C32.7214 37.3114 32.3587 37.674 31.9114 37.674H5.12958C4.68228 37.674 4.31964 37.3114 4.31964 36.8641V16.1298C4.31964 15.6825 4.68228 15.3198 5.12958 15.3198ZM5.9395 36.0541H31.1015V16.9396H5.9395V36.0541Z" fill="white"/>
<path fill-rule="evenodd" clip-rule="evenodd" d="M44.0065 31.7344C42.1308 31.7344 40.6048 33.2604 40.6048 35.1361C40.6048 37.0118 42.1308 38.5378 44.0065 38.5378C45.8822 38.5378 47.4082 37.0118 47.4082 35.1361C47.4082 33.2604 45.8822 31.7344 44.0065 31.7344ZM45.7884 35.1362C45.7884 35.3278 45.7572 35.5122 45.7009 35.6853L43.4575 33.4419C43.6306 33.3856 43.8148 33.3544 44.0065 33.3544C44.989 33.3544 45.7884 34.1537 45.7884 35.1362ZM42.3121 34.5872C42.2558 34.7603 42.2246 34.9446 42.2246 35.1362C42.2246 36.1187 43.024 36.918 44.0065 36.918C44.1982 36.918 44.3824 36.8868 44.5555 36.8306L42.3121 34.5872Z" fill="white"/>
<path fill-rule="evenodd" clip-rule="evenodd" d="M44.0065 23.959C42.1308 23.959 40.6048 25.485 40.6048 27.3607C40.6048 29.2364 42.1308 30.7624 44.0065 30.7624C45.8822 30.7624 47.4082 29.2364 47.4082 27.3607C47.4082 25.485 45.8822 23.959 44.0065 23.959ZM45.7884 27.3606C45.7884 27.5522 45.7572 27.7364 45.7009 27.9095L43.4575 25.6662C43.6306 25.61 43.8148 25.5788 44.0065 25.5788C44.989 25.5788 45.7884 26.3781 45.7884 27.3606ZM42.3121 26.8115C42.2558 26.9846 42.2246 27.1689 42.2246 27.3605C42.2246 28.343 43.024 29.1423 44.0065 29.1423C44.1982 29.1423 44.3824 29.1111 44.5555 29.0548L42.3121 26.8115Z" fill="white"/>
<path d="M42.2786 22.123H45.7343C46.1816 22.123 46.5443 21.7604 46.5443 21.3131C46.5443 20.8658 46.1816 20.5032 45.7343 20.5032H42.2786C41.8313 20.5032 41.4687 20.8658 41.4687 21.3131C41.4687 21.7604 41.8313 22.123 42.2786 22.123Z" fill="white"/>
<path d="M42.2786 19.5312H45.7343C46.1816 19.5312 46.5443 19.1686 46.5443 18.7213C46.5443 18.274 46.1816 17.9114 45.7343 17.9114H42.2786C41.8313 17.9114 41.4687 18.274 41.4687 18.7213C41.4687 19.1686 41.8313 19.5312 42.2786 19.5312Z" fill="white"/>
<path d="M42.2786 16.9397H45.7343C46.1816 16.9397 46.5443 16.5771 46.5443 16.1298C46.5443 15.6825 46.1816 15.3198 45.7343 15.3198H42.2786C41.8313 15.3198 41.4687 15.6825 41.4687 16.1298C41.4687 16.5771 41.8313 16.9397 42.2786 16.9397Z" fill="white"/>
</svg>
