<svg width="50" height="50" viewBox="0 0 50 50" fill="none" xmlns="http://www.w3.org/2000/svg">
<path fill-rule="evenodd" clip-rule="evenodd" d="M17.5 50H32.5C33.8807 50 35 48.8807 35 47.5V29.1667C35 27.1 33.8583 25 31.6667 25H31.475L33.025 22.4083C33.7042 22.1829 34.1637 21.549 34.1667 20.8333V20C34.1631 19.4081 33.8459 18.8626 33.3333 18.5667V9.76667C33.8459 9.47075 33.8459 6.36259 33.3333 6.06667V3.93333C33.8459 3.63741 34.1631 3.09185 34.1667 2.5V1.66667C34.1667 0.746192 33.4205 0 32.5 0H17.5C16.5795 0 15.8333 0.746192 15.8333 1.66667V2.5C15.8369 3.09185 16.1541 3.63741 16.6667 3.93333V6.06667C16.1541 6.36259 16.1541 9.47075 16.6667 9.76667V18.5667C16.1541 18.8626 15.8369 19.4081 15.8333 20V20.8333C15.8363 21.549 16.2958 22.1829 16.975 22.4083L18.525 25H18.3333C16.1417 25 15 27.1 15 29.1667V47.5C15 48.8807 16.1193 50 17.5 50ZM33.3333 31.6667H16.6667V30H33.3333V31.6667ZM24.1667 45V48.3333H25.8333V45H24.1667ZM32.5 48.3332H27.5V44.9999C27.5 44.0794 26.7538 43.3332 25.8333 43.3332H24.1667C23.2462 43.3332 22.5 44.0794 22.5 44.9999V48.3332H17.5C17.0397 48.3332 16.6667 47.9601 16.6667 47.4999V33.3332H33.3333V47.4999C33.3333 47.9601 32.9602 48.3332 32.5 48.3332ZM32.5 20H17.5V20.8333H32.5V20ZM18.3333 4.16678H31.6667V8.4525H18.3333V4.16678ZM32.5 1.66678H17.5V2.50012H32.5V1.66678ZM18.975 22.5H31.025L29.525 25H20.475L18.975 22.5ZM31.6667 26.6668H18.3333C17.375 26.6668 16.9333 27.5001 16.7583 28.3334H33.2417C33.0667 27.5001 32.625 26.6668 31.6667 26.6668Z" fill="white"/>
<path d="M18.3333 10H31.6667V18.3333H18.3333V10Z" fill="white"/>
<path fill-rule="evenodd" clip-rule="evenodd" d="M20.8333 35H22.5C23.4205 35 24.1667 35.7462 24.1667 36.6667V39.1667C24.1667 40.0871 23.4205 40.8333 22.5 40.8333C22.5 41.2936 22.1269 41.6667 21.6667 41.6667C21.2064 41.6667 20.8333 41.2936 20.8333 40.8333C19.9128 40.8333 19.1667 40.0871 19.1667 39.1667V36.6667C19.1667 35.7462 19.9128 35 20.8333 35ZM20.8333 36.6668V39.1668H22.5V36.6668H20.8333Z" fill="white"/>
<path fill-rule="evenodd" clip-rule="evenodd" d="M27.5 35H29.1667C30.0872 35 30.8333 35.7462 30.8333 36.6667V39.1667C30.8333 40.0871 30.0872 40.8333 29.1667 40.8333C29.1667 41.2936 28.7936 41.6667 28.3333 41.6667C27.8731 41.6667 27.5 41.2936 27.5 40.8333C26.5795 40.8333 25.8333 40.0871 25.8333 39.1667V36.6667C25.8333 35.7462 26.5795 35 27.5 35ZM27.5 36.6668V39.1668H29.1667V36.6668H27.5Z" fill="white"/>
<path d="M20.8333 11.6667C20.3731 11.6667 20 12.0398 20 12.5001V15.8334C20 16.2937 20.3731 16.6667 20.8333 16.6667C21.2936 16.6667 21.6667 16.2937 21.6667 15.8334V12.5001C21.6667 12.0398 21.2936 11.6667 20.8333 11.6667Z" fill="white"/>
</svg>
