<svg width="50" height="50" viewBox="0 0 50 50" fill="none" xmlns="http://www.w3.org/2000/svg">
<path d="M13.7938 12.4775C13.8386 10.9114 14.989 9.61577 16.5204 9.41817C18.9612 9.10324 22.2209 8.75 24.5278 8.75C26.8347 8.75 30.0943 9.10324 32.5352 9.41817C34.0666 9.61577 35.217 10.9114 35.2617 12.4774L36.1883 44.9072C36.2406 46.7377 34.7709 48.25 32.9396 48.25H16.1159C14.2846 48.25 12.8149 46.7377 12.8672 44.9072L13.7938 12.4775Z" stroke="white" stroke-width="1.5"/>
<rect x="19.9722" y="17.1113" width="9.11111" height="1.70833" rx="0.854167" fill="white"/>
<rect x="19.9722" y="20.5273" width="9.11111" height="1.70833" rx="0.854167" fill="white"/>
<rect x="19.9722" y="23.9443" width="9.11111" height="1.70833" rx="0.854167" fill="white"/>
<rect x="19.9722" y="27.3613" width="9.11111" height="1.70833" rx="0.854167" fill="white"/>
<path d="M17.3057 15.4768C17.3057 15.0033 17.5642 14.6279 17.9337 14.4886C19.217 14.0048 21.583 13.3057 24.5279 13.3057C27.4727 13.3057 29.8388 14.0048 31.1221 14.4886C31.4915 14.6279 31.7501 15.0033 31.7501 15.4768V30.1345C31.7501 30.608 31.4915 30.9834 31.1221 31.1227C29.8388 31.6065 27.4727 32.3057 24.5279 32.3057C21.583 32.3057 19.217 31.6065 17.9337 31.1227C17.5642 30.9834 17.3057 30.608 17.3057 30.1345V15.4768Z" stroke="white" stroke-width="1.5"/>
</svg>
